<?xml version="1.0" encoding="UTF-8" standalone="no"?>
<!DOCTYPE svg PUBLIC "-//W3C//DTD SVG 1.1//EN"
 "http://www.w3.org/Graphics/SVG/1.1/DTD/svg11.dtd">
<!-- Generated by graphviz version 2.43.0 (0)
 -->
<!-- Title: G Pages: 1 -->
<svg width="641pt" height="801pt"
 viewBox="0.00 0.00 640.61 801.00" xmlns="http://www.w3.org/2000/svg" xmlns:xlink="http://www.w3.org/1999/xlink">
<g id="graph0" class="graph" transform="scale(1 1) rotate(0) translate(4 797)">
<title>G</title><style>.edge>path:hover{stroke-width:8}</style>
<polygon fill="white" stroke="transparent" points="-4,4 -4,-797 636.61,-797 636.61,4 -4,4"/>
<!-- app_py -->
<g id="node1" class="node">
<title>app_py</title><style>.edge>path:hover{stroke-width:8}</style>
<ellipse fill="#995252" stroke="black" cx="418.27" cy="-18" rx="29.37" ry="18"/>
<text text-anchor="middle" x="418.27" y="-15.5" font-family="Helvetica,sans-Serif" font-size="10.00" fill="#ffffff">app.py</text>
</g>
<!-- flask -->
<g id="node2" class="node">
<title>flask</title><style>.edge>path:hover{stroke-width:8}</style>
<polygon fill="blue" stroke="black" points="462.27,-289 408.27,-289 408.27,-253 462.27,-253 462.27,-289"/>
<text text-anchor="middle" x="435.27" y="-268.5" font-family="Helvetica,sans-Serif" font-size="10.00" fill="white">flask</text>
</g>
<!-- flask&#45;&gt;app_py -->
<g id="edge1" class="edge">
<title>flask&#45;&gt;app_py</title><style>.edge>path:hover{stroke-width:8}</style>
<path fill="none" stroke="black" d="M418.27,-198C395.06,-147.52 410.06,-127.95 418.27,-73"/>
</g>
<!-- src_routes -->
<g id="node18" class="node">
<title>src_routes</title><style>.edge>path:hover{stroke-width:8}</style>
<ellipse fill="#613a88" stroke="black" cx="313.27" cy="-127" rx="38.03" ry="18"/>
<text text-anchor="middle" x="313.27" y="-124.5" font-family="Helvetica,sans-Serif" font-size="10.00" fill="#ffffff">src.routes</text>
</g>
<!-- flask&#45;&gt;src_routes -->
<g id="edge2" class="edge">
<title>flask&#45;&gt;src_routes</title><style>.edge>path:hover{stroke-width:8}</style>
<path fill="none" stroke="black" d="M433.02,-252.99C430.66,-238.43 426.16,-217.16 418.27,-200"/>
<path fill="none" stroke="black" d="M418.27,-198C405.91,-171.11 377.36,-153.11 353.15,-142.1"/>
<polygon fill="blue" stroke="black" points="354.35,-138.81 343.78,-138.09 351.59,-145.25 354.35,-138.81"/>
</g>
<!-- flask_app -->
<g id="node3" class="node">
<title>flask_app</title><style>.edge>path:hover{stroke-width:8}</style>
<polygon fill="blue" stroke="black" points="406.77,-721 345.77,-721 345.77,-685 406.77,-685 406.77,-721"/>
<text text-anchor="middle" x="376.27" y="-700.5" font-family="Helvetica,sans-Serif" font-size="10.00" fill="white">flask.app</text>
</g>
<!-- flask_app&#45;&gt;flask -->
<g id="edge3" class="edge">
<title>flask_app&#45;&gt;flask</title><style>.edge>path:hover{stroke-width:8}</style>
<path fill="none" stroke="black" d="M406.87,-693.13C457.76,-676.29 554.27,-634.52 554.27,-560 554.27,-560 554.27,-560 554.27,-486 554.27,-409.01 494.71,-333.84 459.86,-296.46"/>
<polygon fill="blue" stroke="black" points="462.26,-293.9 452.83,-289.06 457.19,-298.72 462.26,-293.9"/>
</g>
<!-- flask_ctx -->
<g id="node6" class="node">
<title>flask_ctx</title><style>.edge>path:hover{stroke-width:8}</style>
<polygon fill="blue" stroke="black" points="240.27,-649 182.27,-649 182.27,-613 240.27,-613 240.27,-649"/>
<text text-anchor="middle" x="211.27" y="-628.5" font-family="Helvetica,sans-Serif" font-size="10.00" fill="white">flask.ctx</text>
</g>
<!-- flask_app&#45;&gt;flask_ctx -->
<g id="edge4" class="edge">
<title>flask_app&#45;&gt;flask_ctx</title><style>.edge>path:hover{stroke-width:8}</style>
<path fill="none" stroke="black" d="M336.39,-685.08C310.12,-673.94 275.91,-659.42 249.9,-648.39"/>
<polygon fill="blue" stroke="black" points="335.05,-688.31 345.62,-689 337.78,-681.87 335.05,-688.31"/>
<polygon fill="blue" stroke="black" points="250.94,-645.03 240.37,-644.35 248.21,-651.47 250.94,-645.03"/>
</g>
<!-- flask_globals -->
<g id="node7" class="node">
<title>flask_globals</title><style>.edge>path:hover{stroke-width:8}</style>
<polygon fill="blue" stroke="black" points="374.27,-577 296.27,-577 296.27,-541 374.27,-541 374.27,-577"/>
<text text-anchor="middle" x="335.27" y="-556.5" font-family="Helvetica,sans-Serif" font-size="10.00" fill="white">flask.globals</text>
</g>
<!-- flask_app&#45;&gt;flask_globals -->
<g id="edge5" class="edge">
<title>flask_app&#45;&gt;flask_globals</title><style>.edge>path:hover{stroke-width:8}</style>
<path fill="none" stroke="black" d="M368.49,-675.06C361.19,-649.76 350.32,-612.13 343.03,-586.87"/>
<polygon fill="blue" stroke="black" points="365.19,-676.23 371.32,-684.87 371.91,-674.29 365.19,-676.23"/>
<polygon fill="blue" stroke="black" points="346.37,-585.83 340.23,-577.19 339.64,-587.77 346.37,-585.83"/>
</g>
<!-- flask_templating -->
<g id="node11" class="node">
<title>flask_templating</title><style>.edge>path:hover{stroke-width:8}</style>
<polygon fill="blue" stroke="black" points="470.27,-361 400.27,-361 400.27,-325 470.27,-325 470.27,-361"/>
<text text-anchor="middle" x="435.27" y="-346" font-family="Helvetica,sans-Serif" font-size="10.00" fill="white">flask.</text>
<text text-anchor="middle" x="435.27" y="-335" font-family="Helvetica,sans-Serif" font-size="10.00" fill="white">templating</text>
</g>
<!-- flask_app&#45;&gt;flask_templating -->
<g id="edge6" class="edge">
<title>flask_app&#45;&gt;flask_templating</title><style>.edge>path:hover{stroke-width:8}</style>
<path fill="none" stroke="black" d="M407.42,-678.52C437.41,-652.99 478.27,-609.18 478.27,-560 478.27,-560 478.27,-560 478.27,-486 478.27,-444.29 461.07,-398.54 448.43,-370.54"/>
<polygon fill="blue" stroke="black" points="405.15,-675.85 399.67,-684.92 409.61,-681.25 405.15,-675.85"/>
<polygon fill="blue" stroke="black" points="451.57,-369.01 444.18,-361.42 445.23,-371.96 451.57,-369.01"/>
</g>
<!-- flask_blueprints -->
<g id="node4" class="node">
<title>flask_blueprints</title><style>.edge>path:hover{stroke-width:8}</style>
<polygon fill="blue" stroke="black" points="336.77,-361 271.77,-361 271.77,-325 336.77,-325 336.77,-361"/>
<text text-anchor="middle" x="304.27" y="-346" font-family="Helvetica,sans-Serif" font-size="10.00" fill="white">flask.</text>
<text text-anchor="middle" x="304.27" y="-335" font-family="Helvetica,sans-Serif" font-size="10.00" fill="white">blueprints</text>
</g>
<!-- flask_blueprints&#45;&gt;flask -->
<g id="edge7" class="edge">
<title>flask_blueprints&#45;&gt;flask</title><style>.edge>path:hover{stroke-width:8}</style>
<path fill="none" stroke="black" d="M336.32,-324.88C355.28,-314.74 379.36,-301.88 399.01,-291.37"/>
<polygon fill="blue" stroke="black" points="400.81,-294.38 407.98,-286.58 397.51,-288.21 400.81,-294.38"/>
</g>
<!-- flask_config -->
<g id="node5" class="node">
<title>flask_config</title><style>.edge>path:hover{stroke-width:8}</style>
<ellipse fill="#85b653" stroke="black" cx="568.27" cy="-343" rx="42.27" ry="18"/>
<text text-anchor="middle" x="568.27" y="-340.5" font-family="Helvetica,sans-Serif" font-size="10.00" fill="#000000">flask.config</text>
</g>
<!-- flask_config&#45;&gt;flask -->
<g id="edge8" class="edge">
<title>flask_config&#45;&gt;flask</title><style>.edge>path:hover{stroke-width:8}</style>
<path fill="none" stroke="black" d="M542.63,-328.5C522.46,-317.89 494.1,-302.96 471.6,-291.12"/>
<polygon fill="#85b653" stroke="black" points="473.15,-287.98 462.67,-286.42 469.89,-294.17 473.15,-287.98"/>
</g>
<!-- flask_ctx&#45;&gt;flask -->
<g id="edge9" class="edge">
<title>flask_ctx&#45;&gt;flask</title><style>.edge>path:hover{stroke-width:8}</style>
<path fill="none" stroke="black" d="M204.09,-612.95C185.93,-567.13 142.49,-438.4 184.27,-344"/>
<path fill="none" stroke="black" d="M184.27,-342C220.59,-252.86 302.9,-319.29 394.27,-289 395.69,-288.53 397.12,-288.03 398.57,-287.52"/>
<polygon fill="blue" stroke="black" points="400.02,-290.71 408.13,-283.9 397.54,-284.17 400.02,-290.71"/>
</g>
<!-- flask_ctx&#45;&gt;flask_globals -->
<g id="edge11" class="edge">
<title>flask_ctx&#45;&gt;flask_globals</title><style>.edge>path:hover{stroke-width:8}</style>
<path fill="none" stroke="black" d="M249.38,-608.49C264.2,-600.12 281.17,-590.54 296.1,-582.11"/>
<polygon fill="blue" stroke="black" points="247.33,-605.62 240.34,-613.59 250.77,-611.72 247.33,-605.62"/>
<polygon fill="blue" stroke="black" points="298.1,-585 305.09,-577.04 294.66,-578.91 298.1,-585"/>
</g>
<!-- flask_globals&#45;&gt;flask -->
<g id="edge12" class="edge">
<title>flask_globals&#45;&gt;flask</title><style>.edge>path:hover{stroke-width:8}</style>
<path fill="none" stroke="black" d="M352.27,-486C352.71,-448.28 326.84,-446.23 304.27,-416"/>
<path fill="none" stroke="black" d="M304.27,-414C297.29,-404.65 293.93,-403.55 284.27,-397 242.64,-368.77 163.91,-390 184.27,-344"/>
</g>
<!-- flask_globals&#45;&gt;flask_blueprints -->
<g id="edge14" class="edge">
<title>flask_globals&#45;&gt;flask_blueprints</title><style>.edge>path:hover{stroke-width:8}</style>
<path fill="none" stroke="black" d="M304.27,-414C295.29,-401.97 294.97,-385.26 297.05,-371.17"/>
<polygon fill="blue" stroke="black" points="300.55,-371.52 299.01,-361.04 293.68,-370.2 300.55,-371.52"/>
</g>
<!-- flask_helpers -->
<g id="node8" class="node">
<title>flask_helpers</title><style>.edge>path:hover{stroke-width:8}</style>
<polygon fill="blue" stroke="black" points="411.77,-433 332.77,-433 332.77,-397 411.77,-397 411.77,-433"/>
<text text-anchor="middle" x="372.27" y="-412.5" font-family="Helvetica,sans-Serif" font-size="10.00" fill="white">flask.helpers</text>
</g>
<!-- flask_globals&#45;&gt;flask_helpers -->
<g id="edge16" class="edge">
<title>flask_globals&#45;&gt;flask_helpers</title><style>.edge>path:hover{stroke-width:8}</style>
<path fill="none" stroke="black" d="M352.27,-486C352.76,-471.35 356.91,-455.6 361.31,-442.76"/>
<polygon fill="blue" stroke="black" points="364.67,-443.76 364.82,-433.17 358.09,-441.35 364.67,-443.76"/>
</g>
<!-- flask_json -->
<g id="node9" class="node">
<title>flask_json</title><style>.edge>path:hover{stroke-width:8}</style>
<polygon fill="blue" stroke="black" points="275.77,-433 212.77,-433 212.77,-397 275.77,-397 275.77,-433"/>
<text text-anchor="middle" x="244.27" y="-412.5" font-family="Helvetica,sans-Serif" font-size="10.00" fill="white">flask.json</text>
</g>
<!-- flask_globals&#45;&gt;flask_json -->
<g id="edge17" class="edge">
<title>flask_globals&#45;&gt;flask_json</title><style>.edge>path:hover{stroke-width:8}</style>
<path fill="none" stroke="black" d="M341.56,-540.73C346.14,-526.73 351.66,-506.37 352.27,-488"/>
<path fill="none" stroke="black" d="M352.27,-486C352.83,-469.35 316.11,-448.36 285.34,-433.72"/>
<polygon fill="blue" stroke="black" points="286.58,-430.44 276.03,-429.4 283.63,-436.78 286.58,-430.44"/>
</g>
<!-- flask_globals&#45;&gt;flask_templating -->
<g id="edge18" class="edge">
<title>flask_globals&#45;&gt;flask_templating</title><style>.edge>path:hover{stroke-width:8}</style>
<path fill="none" stroke="black" d="M352.27,-486C353.55,-447.7 400.64,-465.91 420.27,-433 431.34,-414.44 434.84,-390.04 435.71,-371.49"/>
<polygon fill="blue" stroke="black" points="439.21,-371.41 435.95,-361.33 432.21,-371.24 439.21,-371.41"/>
</g>
<!-- flask_wrappers -->
<g id="node12" class="node">
<title>flask_wrappers</title><style>.edge>path:hover{stroke-width:8}</style>
<polygon fill="blue" stroke="black" points="312.27,-505 224.27,-505 224.27,-469 312.27,-469 312.27,-505"/>
<text text-anchor="middle" x="268.27" y="-484.5" font-family="Helvetica,sans-Serif" font-size="10.00" fill="white">flask.wrappers</text>
</g>
<!-- flask_globals&#45;&gt;flask_wrappers -->
<g id="edge19" class="edge">
<title>flask_globals&#45;&gt;flask_wrappers</title><style>.edge>path:hover{stroke-width:8}</style>
<path fill="none" stroke="black" d="M311.53,-533.2C305.14,-526.52 298.22,-519.29 291.83,-512.62"/>
<polygon fill="blue" stroke="black" points="309.27,-535.89 318.71,-540.7 314.32,-531.05 309.27,-535.89"/>
<polygon fill="blue" stroke="black" points="294.08,-509.91 284.64,-505.1 289.03,-514.75 294.08,-509.91"/>
</g>
<!-- flask_helpers&#45;&gt;flask -->
<g id="edge20" class="edge">
<title>flask_helpers&#45;&gt;flask</title><style>.edge>path:hover{stroke-width:8}</style>
<path fill="none" stroke="black" d="M373.49,-396.81C375.35,-378.28 379.96,-348.31 391.27,-325 396.17,-314.89 403.41,-305.06 410.6,-296.67"/>
<polygon fill="blue" stroke="black" points="413.32,-298.88 417.4,-289.1 408.11,-294.2 413.32,-298.88"/>
</g>
<!-- flask_helpers&#45;&gt;flask_app -->
<g id="edge21" class="edge">
<title>flask_helpers&#45;&gt;flask_app</title><style>.edge>path:hover{stroke-width:8}</style>
<path fill="none" stroke="black" d="M374.28,-433.36C376.97,-457.47 381.58,-502.48 383.27,-541 385.32,-587.76 381.7,-642.15 378.95,-674.24"/>
<polygon fill="blue" stroke="black" points="375.43,-674.34 378.02,-684.61 382.4,-674.96 375.43,-674.34"/>
</g>
<!-- flask_helpers&#45;&gt;flask_blueprints -->
<g id="edge22" class="edge">
<title>flask_helpers&#45;&gt;flask_blueprints</title><style>.edge>path:hover{stroke-width:8}</style>
<path fill="none" stroke="black" d="M355.46,-396.7C347.14,-388.14 336.96,-377.66 327.88,-368.3"/>
<polygon fill="blue" stroke="black" points="330.36,-365.84 320.89,-361.1 325.34,-370.72 330.36,-365.84"/>
</g>
<!-- flask_helpers&#45;&gt;flask_templating -->
<g id="edge23" class="edge">
<title>flask_helpers&#45;&gt;flask_templating</title><style>.edge>path:hover{stroke-width:8}</style>
<path fill="none" stroke="black" d="M387.84,-396.7C395.47,-388.22 404.79,-377.86 413.15,-368.58"/>
<polygon fill="blue" stroke="black" points="415.79,-370.88 419.88,-361.1 410.59,-366.2 415.79,-370.88"/>
</g>
<!-- flask_json&#45;&gt;flask -->
<g id="edge25" class="edge">
<title>flask_json&#45;&gt;flask</title><style>.edge>path:hover{stroke-width:8}</style>
<path fill="none" stroke="black" d="M213.3,-396.81C194.27,-383.78 175.14,-364.64 184.27,-344"/>
</g>
<!-- flask_signals -->
<g id="node10" class="node">
<title>flask_signals</title><style>.edge>path:hover{stroke-width:8}</style>
<ellipse fill="#85e722" stroke="black" cx="376.27" cy="-775" rx="45.15" ry="18"/>
<text text-anchor="middle" x="376.27" y="-772.5" font-family="Helvetica,sans-Serif" font-size="10.00" fill="#000000">flask.signals</text>
</g>
<!-- flask_signals&#45;&gt;flask -->
<g id="edge27" class="edge">
<title>flask_signals&#45;&gt;flask</title><style>.edge>path:hover{stroke-width:8}</style>
<path fill="none" stroke="black" d="M592.27,-486C581.55,-414.24 662.9,-382.97 619.27,-325 601.67,-301.62 521.23,-285.33 472.73,-277.43"/>
<polygon fill="#85e722" stroke="black" points="473.03,-273.94 462.6,-275.83 471.93,-280.85 473.03,-273.94"/>
</g>
<!-- flask_signals&#45;&gt;flask_app -->
<g id="edge28" class="edge">
<title>flask_signals&#45;&gt;flask_app</title><style>.edge>path:hover{stroke-width:8}</style>
<path fill="none" stroke="black" d="M376.27,-756.7C376.27,-748.98 376.27,-739.71 376.27,-731.11"/>
<polygon fill="#85e722" stroke="black" points="379.77,-731.1 376.27,-721.1 372.77,-731.1 379.77,-731.1"/>
</g>
<!-- flask_signals&#45;&gt;flask_ctx -->
<g id="edge29" class="edge">
<title>flask_signals&#45;&gt;flask_ctx</title><style>.edge>path:hover{stroke-width:8}</style>
<path fill="none" stroke="black" d="M357.98,-758.26C329.09,-733.39 272.68,-684.85 238.85,-655.74"/>
<polygon fill="#85e722" stroke="black" points="241.04,-653 231.18,-649.13 236.47,-658.31 241.04,-653"/>
</g>
<!-- flask_signals&#45;&gt;flask_helpers -->
<g id="edge30" class="edge">
<title>flask_signals&#45;&gt;flask_helpers</title><style>.edge>path:hover{stroke-width:8}</style>
<path fill="none" stroke="black" d="M407.96,-762C477.52,-733.62 634.14,-657.35 592.27,-560"/>
<path fill="none" stroke="black" d="M592.27,-558C563.91,-486.67 477.24,-447.66 421.53,-429.36"/>
<polygon fill="#85e722" stroke="black" points="422.44,-425.98 411.85,-426.29 420.32,-432.65 422.44,-425.98"/>
</g>
<!-- flask_signals&#45;&gt;flask_templating -->
<g id="edge31" class="edge">
<title>flask_signals&#45;&gt;flask_templating</title><style>.edge>path:hover{stroke-width:8}</style>
<path fill="none" stroke="black" d="M592.27,-558C587.2,-527.3 599.75,-518.2 592.27,-488"/>
<path fill="none" stroke="black" d="M592.27,-486C578.15,-429 520.5,-387.84 479.16,-364.95"/>
<polygon fill="#85e722" stroke="black" points="480.81,-361.86 470.34,-360.2 477.49,-368.02 480.81,-361.86"/>
</g>
<!-- flask_templating&#45;&gt;flask -->
<g id="edge32" class="edge">
<title>flask_templating&#45;&gt;flask</title><style>.edge>path:hover{stroke-width:8}</style>
<path fill="none" stroke="black" d="M435.27,-324.7C435.27,-316.98 435.27,-307.71 435.27,-299.11"/>
<polygon fill="blue" stroke="black" points="438.77,-299.1 435.27,-289.1 431.77,-299.1 438.77,-299.1"/>
</g>
<!-- flask_wrappers&#45;&gt;flask -->
<g id="edge34" class="edge">
<title>flask_wrappers&#45;&gt;flask</title><style>.edge>path:hover{stroke-width:8}</style>
<path fill="none" stroke="black" d="M227.31,-468.89C206.98,-457.44 186.29,-440.02 184.27,-416"/>
<path fill="none" stroke="black" d="M184.27,-414C181.67,-383 171.68,-372.45 184.27,-344"/>
</g>
<!-- flask_wrappers&#45;&gt;flask_app -->
<g id="edge35" class="edge">
<title>flask_wrappers&#45;&gt;flask_app</title><style>.edge>path:hover{stroke-width:8}</style>
<path fill="none" stroke="black" d="M268.27,-560C258.03,-613.7 313.25,-660.85 348.53,-684.96"/>
</g>
<!-- flask_wrappers&#45;&gt;flask_blueprints -->
<g id="edge36" class="edge">
<title>flask_wrappers&#45;&gt;flask_blueprints</title><style>.edge>path:hover{stroke-width:8}</style>
<path fill="none" stroke="black" d="M184.27,-414C181.14,-376.65 226.02,-358.85 261.78,-350.63"/>
<polygon fill="blue" stroke="black" points="262.52,-354.05 271.58,-348.56 261.07,-347.2 262.52,-354.05"/>
</g>
<!-- flask_wrappers&#45;&gt;flask_ctx -->
<g id="edge37" class="edge">
<title>flask_wrappers&#45;&gt;flask_ctx</title><style>.edge>path:hover{stroke-width:8}</style>
<path fill="none" stroke="black" d="M270.05,-505.14C270.91,-516.74 271.44,-532.64 269.78,-547.74"/>
<polygon fill="blue" stroke="black" points="266.27,-547.6 268.27,-558 273.19,-548.62 266.27,-547.6"/>
<path fill="none" stroke="black" d="M268.27,-560C264.19,-581.4 247.74,-600.2 233.55,-612.91"/>
</g>
<!-- flask_wrappers&#45;&gt;flask_helpers -->
<g id="edge39" class="edge">
<title>flask_wrappers&#45;&gt;flask_helpers</title><style>.edge>path:hover{stroke-width:8}</style>
<path fill="none" stroke="black" d="M302.39,-463.04C313.9,-455.29 326.74,-446.65 338.24,-438.91"/>
<polygon fill="blue" stroke="black" points="300.05,-460.39 293.71,-468.88 303.96,-466.2 300.05,-460.39"/>
<polygon fill="blue" stroke="black" points="340.39,-441.68 346.73,-433.19 336.48,-435.87 340.39,-441.68"/>
</g>
<!-- flask_wrappers&#45;&gt;flask_json -->
<g id="edge40" class="edge">
<title>flask_wrappers&#45;&gt;flask_json</title><style>.edge>path:hover{stroke-width:8}</style>
<path fill="none" stroke="black" d="M259.09,-459.23C257.26,-453.89 255.33,-448.27 253.5,-442.92"/>
<polygon fill="blue" stroke="black" points="255.78,-460.37 262.34,-468.7 262.41,-458.1 255.78,-460.37"/>
<polygon fill="blue" stroke="black" points="256.69,-441.43 250.13,-433.1 250.07,-443.7 256.69,-441.43"/>
</g>
<!-- psycopg -->
<g id="node13" class="node">
<title>psycopg</title><style>.edge>path:hover{stroke-width:8}</style>
<ellipse fill="#26d9d9" stroke="black" cx="88.27" cy="-343" rx="33.61" ry="18"/>
<text text-anchor="middle" x="88.27" y="-340.5" font-family="Helvetica,sans-Serif" font-size="10.00" fill="#000000">psycopg</text>
</g>
<!-- src_load_data -->
<g id="node16" class="node">
<title>src_load_data</title><style>.edge>path:hover{stroke-width:8}</style>
<ellipse fill="#7546a4" stroke="black" cx="48.27" cy="-199" rx="48.04" ry="18"/>
<text text-anchor="middle" x="48.27" y="-196.5" font-family="Helvetica,sans-Serif" font-size="10.00" fill="#ffffff">src.load_data</text>
</g>
<!-- psycopg&#45;&gt;src_load_data -->
<g id="edge41" class="edge">
<title>psycopg&#45;&gt;src_load_data</title><style>.edge>path:hover{stroke-width:8}</style>
<path fill="none" stroke="black" d="M83.52,-325.15C76.71,-300.94 64.06,-256.05 55.91,-227.13"/>
<polygon fill="#26d9d9" stroke="black" points="59.21,-225.94 53.13,-217.27 52.48,-227.84 59.21,-225.94"/>
</g>
<!-- src_query_data -->
<g id="node17" class="node">
<title>src_query_data</title><style>.edge>path:hover{stroke-width:8}</style>
<ellipse fill="#7546a4" stroke="black" cx="204.27" cy="-199" rx="52.28" ry="18"/>
<text text-anchor="middle" x="204.27" y="-196.5" font-family="Helvetica,sans-Serif" font-size="10.00" fill="#ffffff">src.query_data</text>
</g>
<!-- psycopg&#45;&gt;src_query_data -->
<g id="edge42" class="edge">
<title>psycopg&#45;&gt;src_query_data</title><style>.edge>path:hover{stroke-width:8}</style>
<path fill="none" stroke="black" d="M118.79,-335.43C193.35,-319.28 378.8,-278.5 380.27,-272"/>
<path fill="none" stroke="black" d="M380.27,-270C383.32,-256.49 306.1,-230.43 252.96,-214.2"/>
<polygon fill="#26d9d9" stroke="black" points="253.92,-210.84 243.34,-211.29 251.9,-217.54 253.92,-210.84"/>
</g>
<!-- psycopg&#45;&gt;src_routes -->
<g id="edge43" class="edge">
<title>psycopg&#45;&gt;src_routes</title><style>.edge>path:hover{stroke-width:8}</style>
<path fill="none" stroke="black" d="M380.27,-270C389.18,-230.55 379.7,-217 361.27,-181 355.5,-169.72 346.69,-159.01 338.19,-150.2"/>
<polygon fill="#26d9d9" stroke="black" points="340.47,-147.53 330.89,-142.99 335.55,-152.51 340.47,-147.53"/>
</g>
<!-- src -->
<g id="node14" class="node">
<title>src</title><style>.edge>path:hover{stroke-width:8}</style>
<ellipse fill="#8522e7" stroke="black" cx="473.27" cy="-127" rx="27" ry="18"/>
<text text-anchor="middle" x="473.27" y="-124.5" font-family="Helvetica,sans-Serif" font-size="10.00" fill="#ffffff">src</text>
</g>
<!-- src&#45;&gt;app_py -->
<g id="edge44" class="edge">
<title>src&#45;&gt;app_py</title><style>.edge>path:hover{stroke-width:8}</style>
<path fill="none" stroke="black" d="M451.28,-116.38C434.72,-107.49 415.33,-92.67 418.27,-73"/>
</g>
<!-- src_config -->
<g id="node15" class="node">
<title>src_config</title><style>.edge>path:hover{stroke-width:8}</style>
<ellipse fill="#853bce" stroke="black" cx="124.27" cy="-271" rx="37.17" ry="18"/>
<text text-anchor="middle" x="124.27" y="-268.5" font-family="Helvetica,sans-Serif" font-size="10.00" fill="#ffffff">src.config</text>
</g>
<!-- src_config&#45;&gt;src_load_data -->
<g id="edge45" class="edge">
<title>src_config&#45;&gt;src_load_data</title><style>.edge>path:hover{stroke-width:8}</style>
<path fill="none" stroke="black" d="M107.78,-254.81C97.63,-245.47 84.44,-233.31 73.05,-222.83"/>
<polygon fill="#853bce" stroke="black" points="75.25,-220.09 65.52,-215.89 70.5,-225.24 75.25,-220.09"/>
</g>
<!-- src_config&#45;&gt;src_query_data -->
<g id="edge46" class="edge">
<title>src_config&#45;&gt;src_query_data</title><style>.edge>path:hover{stroke-width:8}</style>
<path fill="none" stroke="black" d="M141.63,-254.81C152.41,-245.38 166.46,-233.08 178.53,-222.53"/>
<polygon fill="#853bce" stroke="black" points="180.89,-225.11 186.11,-215.89 176.28,-219.84 180.89,-225.11"/>
</g>
<!-- src_config&#45;&gt;src_routes -->
<g id="edge47" class="edge">
<title>src_config&#45;&gt;src_routes</title><style>.edge>path:hover{stroke-width:8}</style>
<path fill="none" stroke="black" d="M123.13,-252.98C122.76,-233.2 125.28,-200.73 143.27,-181 174.12,-147.18 226.16,-134.75 264.55,-130.28"/>
<polygon fill="#853bce" stroke="black" points="265.4,-133.72 274.99,-129.22 264.69,-126.75 265.4,-133.72"/>
</g>
<!-- src_load_data&#45;&gt;src_routes -->
<g id="edge48" class="edge">
<title>src_load_data&#45;&gt;src_routes</title><style>.edge>path:hover{stroke-width:8}</style>
<path fill="none" stroke="black" d="M85.96,-187.59C93.98,-185.39 102.4,-183.11 110.27,-181 165.58,-166.2 229.49,-149.59 270.6,-138.98"/>
<polygon fill="#7546a4" stroke="black" points="271.73,-142.3 280.54,-136.41 269.98,-135.52 271.73,-142.3"/>
</g>
<!-- src_query_data&#45;&gt;src_routes -->
<g id="edge49" class="edge">
<title>src_query_data&#45;&gt;src_routes</title><style>.edge>path:hover{stroke-width:8}</style>
<path fill="none" stroke="black" d="M227.92,-182.81C244.02,-172.47 265.48,-158.69 282.86,-147.53"/>
<polygon fill="#7546a4" stroke="black" points="284.99,-150.32 291.52,-141.97 281.21,-144.43 284.99,-150.32"/>
</g>
<!-- src_routes&#45;&gt;app_py -->
<g id="edge50" class="edge">
<title>src_routes&#45;&gt;app_py</title><style>.edge>path:hover{stroke-width:8}</style>
<path fill="none" stroke="black" d="M350.04,-121.85C378.47,-116.28 413.74,-103.29 418.27,-73"/>
<path fill="none" stroke="black" d="M418.27,-72C419.5,-63.77 419.86,-54.75 419.81,-46.52"/>
<polygon fill="#613a88" stroke="black" points="423.31,-46.19 419.56,-36.28 416.31,-46.37 423.31,-46.19"/>
</g>
<!-- src_scrape -->
<g id="node19" class="node">
<title>src_scrape</title><style>.edge>path:hover{stroke-width:8}</style>
<ellipse fill="#7f4cb3" stroke="black" cx="313.27" cy="-199" rx="38.7" ry="18"/>
<text text-anchor="middle" x="313.27" y="-196.5" font-family="Helvetica,sans-Serif" font-size="10.00" fill="#ffffff">src.scrape</text>
</g>
<!-- src_scrape&#45;&gt;src_routes -->
<g id="edge51" class="edge">
<title>src_scrape&#45;&gt;src_routes</title><style>.edge>path:hover{stroke-width:8}</style>
<path fill="none" stroke="black" d="M313.27,-180.7C313.27,-172.98 313.27,-163.71 313.27,-155.11"/>
<polygon fill="#7f4cb3" stroke="black" points="316.77,-155.1 313.27,-145.1 309.77,-155.1 316.77,-155.1"/>
</g>
</g>
</svg>
